<?xml version="1.0" standalone="no"?>
<svg xmlns:xlink="http://www.w3.org/1999/xlink" id="wave" style="transform:rotate(0deg); transition: 0.3s" viewBox="0 0 1440 310" version="1.1" xmlns="http://www.w3.org/2000/svg"><defs><linearGradient id="sw-gradient-0" x1="0" x2="0" y1="1" y2="0"><stop stop-color="rgba(255, 255, 255, 1)" offset="0%"/><stop stop-color="rgba(255, 255, 255, 1)" offset="100%"/></linearGradient></defs><path style="transform:translate(0, 0px); opacity:1" fill="url(#sw-gradient-0)" d="M0,124L26.7,113.7C53.3,103,107,83,160,77.5C213.3,72,267,83,320,118.8C373.3,155,427,217,480,201.5C533.3,186,587,93,640,82.7C693.3,72,747,145,800,160.2C853.3,176,907,134,960,98.2C1013.3,62,1067,31,1120,41.3C1173.3,52,1227,103,1280,129.2C1333.3,155,1387,155,1440,139.5C1493.3,124,1547,93,1600,67.2C1653.3,41,1707,21,1760,46.5C1813.3,72,1867,145,1920,175.7C1973.3,207,2027,196,2080,160.2C2133.3,124,2187,62,2240,77.5C2293.3,93,2347,186,2400,222.2C2453.3,258,2507,238,2560,227.3C2613.3,217,2667,217,2720,211.8C2773.3,207,2827,196,2880,175.7C2933.3,155,2987,124,3040,134.3C3093.3,145,3147,196,3200,180.8C3253.3,165,3307,83,3360,87.8C3413.3,93,3467,186,3520,232.5C3573.3,279,3627,279,3680,248C3733.3,217,3787,155,3813,124L3840,93L3840,310L3813.3,310C3786.7,310,3733,310,3680,310C3626.7,310,3573,310,3520,310C3466.7,310,3413,310,3360,310C3306.7,310,3253,310,3200,310C3146.7,310,3093,310,3040,310C2986.7,310,2933,310,2880,310C2826.7,310,2773,310,2720,310C2666.7,310,2613,310,2560,310C2506.7,310,2453,310,2400,310C2346.7,310,2293,310,2240,310C2186.7,310,2133,310,2080,310C2026.7,310,1973,310,1920,310C1866.7,310,1813,310,1760,310C1706.7,310,1653,310,1600,310C1546.7,310,1493,310,1440,310C1386.7,310,1333,310,1280,310C1226.7,310,1173,310,1120,310C1066.7,310,1013,310,960,310C906.7,310,853,310,800,310C746.7,310,693,310,640,310C586.7,310,533,310,480,310C426.7,310,373,310,320,310C266.7,310,213,310,160,310C106.7,310,53,310,27,310L0,310Z"/></svg>